<svg width="587" height="232" viewBox="0 0 587 232" fill="none" xmlns="http://www.w3.org/2000/svg">
<path d="M176.5 41.5L18 117L176.5 187.5" stroke="black" stroke-width="15" stroke-linecap="round"/>
<rect x="7.5" y="28.5" width="173" height="173" stroke="black" stroke-width="15"/>
<path d="M223 168.964V59H286.788V72.32H240.464V107.1H275.096V120.42H240.464V168.964H223Z" fill="black"/>
<path d="M308.932 170.148C303.999 170.148 299.608 169.186 295.76 167.262C291.961 165.289 288.952 162.526 286.732 158.974C284.561 155.373 283.476 151.13 283.476 146.246C283.476 140.967 284.882 136.503 287.694 132.852C290.555 129.152 294.379 126.266 299.164 124.194C302.321 122.911 305.75 121.9 309.45 121.16C313.15 120.371 316.85 119.828 320.55 119.532C324.25 119.187 327.679 119.014 330.836 119.014L334.388 123.528L330.836 129.522C328.912 129.522 326.593 129.67 323.88 129.966C321.216 130.213 318.577 130.632 315.962 131.224C313.347 131.767 311.127 132.482 309.302 133.37C306.786 134.505 304.689 135.96 303.012 137.736C301.335 139.512 300.496 141.979 300.496 145.136C300.496 149.28 301.631 152.413 303.9 154.534C306.219 156.655 309.647 157.716 314.186 157.716C316.505 157.716 318.848 157.371 321.216 156.68C323.584 155.989 325.631 155.2 327.358 154.312C329.134 153.424 330.293 152.659 330.836 152.018L334.24 155.644L331.798 162.008C329.627 163.981 326.495 165.831 322.4 167.558C318.305 169.285 313.816 170.148 308.932 170.148ZM347.93 168.964H331.798V156.68H330.836V111.244C330.836 106.409 329.553 103.227 326.988 101.698C324.472 100.119 320.871 99.33 316.184 99.33C313.076 99.33 309.869 99.6507 306.564 100.292C303.259 100.884 300.225 101.649 297.462 102.586C294.699 103.474 292.578 104.387 291.098 105.324L287.102 93.04C288.237 92.3493 290.407 91.3873 293.614 90.154C296.87 88.9207 300.644 87.8107 304.936 86.824C309.277 85.788 313.569 85.27 317.812 85.27C323.979 85.27 329.307 85.9853 333.796 87.416C338.335 88.8467 341.813 91.5107 344.23 95.408C346.697 99.256 347.93 104.855 347.93 112.206V168.964Z" fill="black"/>
<path d="M387.703 170.148L355.291 86.528H373.717L389.331 132.334L397.619 160.01H393.179L400.801 132.334L415.897 86.528H434.027L402.429 170.148H387.703Z" fill="black"/>
<path d="M474.084 170.148C462.244 170.148 453.117 166.399 446.704 158.9C440.291 151.401 437.084 140.992 437.084 127.672C437.084 119.68 438.49 112.527 441.302 106.212C444.163 99.8973 448.357 94.89 453.882 91.19C459.457 87.49 466.289 85.5907 474.38 85.492C478.524 85.3933 482.421 85.9853 486.072 87.268C489.723 88.5507 492.954 90.4993 495.766 93.114C498.578 95.6793 500.798 98.9353 502.426 102.882C504.103 106.829 505.016 111.441 505.164 116.72C505.164 119.828 505.139 122.615 505.09 125.082C505.041 127.499 504.819 129.645 504.424 131.52H447L448.48 120.716H489.18C489.427 116.769 489.18 113.045 488.44 109.542C487.749 105.99 486.22 103.129 483.852 100.958C481.533 98.738 478.08 97.628 473.492 97.628C469.644 97.628 466.191 98.7133 463.132 100.884C460.073 103.005 457.705 106.607 456.028 111.688C454.351 116.769 453.66 123.725 453.956 132.556C454.252 138.772 455.51 143.681 457.73 147.282C459.95 150.883 462.861 153.449 466.462 154.978C470.063 156.507 474.084 157.272 478.524 157.272C480.399 157.272 482.693 157.075 485.406 156.68C488.119 156.236 490.734 155.693 493.25 155.052C495.815 154.361 497.764 153.621 499.096 152.832L502.352 162.6C500.527 164.08 498.035 165.387 494.878 166.522C491.77 167.657 488.391 168.545 484.74 169.186C481.089 169.827 477.537 170.148 474.084 170.148Z" fill="black"/>
<path d="M518.14 168.964V86.676H533.458L533.532 95.408C535.555 94.0267 538.095 92.5713 541.154 91.042C544.262 89.5127 547.592 88.2053 551.144 87.12C554.746 86.0347 558.322 85.4427 561.874 85.344C570.705 85.0973 577.044 87.3913 580.892 92.226C584.74 97.0113 586.664 105.447 586.664 117.534V168.964H569.496V118.422C569.496 111.515 568.559 106.557 566.684 103.548C564.859 100.539 560.863 99.2067 554.696 99.552C552.97 99.6013 550.971 99.922 548.702 100.514C546.482 101.057 544.188 101.871 541.82 102.956C539.501 103.992 537.281 105.324 535.16 106.952V168.964H518.14Z" fill="black"/>
</svg>
